<?xml version="1.0" standalone="no"?>
<!DOCTYPE svg PUBLIC "-//W3C//DTD SVG 20010904//EN"
 "http://www.w3.org/TR/2001/REC-SVG-20010904/DTD/svg10.dtd">
<svg version="1.0" xmlns="http://www.w3.org/2000/svg"
 width="1707.000000pt" height="1707.000000pt" viewBox="0 0 1707.000000 1707.000000"
 preserveAspectRatio="xMidYMid meet">
<metadata>
Created by potrace 1.11, written by Peter Selinger 2001-2013
</metadata>
<g transform="translate(0.000000,1707.000000) scale(0.100000,-0.100000)"
fill="#000000" stroke="none">
<path d="M4936 12575 c-124 -63 -343 -216 -436 -304 -9 -9 -41 -39 -71 -67
-340 -323 -616 -690 -849 -1129 -23 -44 -58 -109 -77 -143 l-35 -64 -107 189
c-59 103 -140 247 -181 320 l-75 131 -40 -22 c-22 -13 -152 -84 -290 -160
-137 -75 -257 -141 -265 -147 -8 -5 -26 -15 -40 -21 -14 -7 -27 -15 -30 -18
-3 -3 -22 -14 -43 -24 l-38 -20 143 -69 c117 -57 317 -173 338 -197 3 -3 30
-23 60 -45 126 -92 275 -223 484 -426 l130 -127 51 69 c27 38 77 106 110 152
51 70 179 229 265 331 115 135 287 313 482 499 178 169 446 355 573 397 40 13
41 18 19 80 -26 71 -44 141 -51 195 -13 92 -6 356 12 455 2 14 7 50 10 80 3
30 8 67 11 83 7 33 2 33 -60 2z"/>
<path d="M6339 12482 l-45 -3 0 -624 0 -625 56 0 c72 -1 7110 -1 7175 0 l51 0
0 625 0 625 -36 1 c-136 2 -7165 3 -7201 1z"/>
<path d="M4870 10473 c-430 -251 -862 -724 -1218 -1333 -49 -85 -109 -194
-133 -242 -24 -49 -46 -88 -50 -88 -3 0 -11 10 -17 23 -6 12 -23 40 -37 62
-14 22 -28 47 -32 55 -4 8 -20 38 -36 65 -16 28 -77 133 -134 235 -58 102
-106 186 -108 188 -1 2 -65 -31 -141 -74 -77 -42 -168 -92 -204 -112 -94 -51
-320 -176 -357 -198 -37 -21 -41 -32 -16 -41 58 -20 213 -99 303 -153 221
-134 402 -282 696 -571 l131 -129 42 65 c41 63 158 225 170 235 3 3 25 30 49
61 23 31 65 83 93 115 135 156 157 181 199 228 25 28 110 116 190 196 125 125
182 178 330 304 94 79 222 162 343 222 53 26 97 53 97 61 0 7 -11 42 -25 79
-48 127 -62 308 -41 514 4 36 9 85 12 110 6 58 14 129 19 158 6 34 -19 27
-125 -35z"/>
<path d="M6299 9690 c-1 -3 -2 -285 -3 -628 l-1 -622 3640 2 3640 3 0 618 c1
340 -2 621 -5 625 -5 9 -7269 10 -7271 2z"/>
<path d="M4635 7921 c-261 -150 -453 -299 -680 -526 -173 -173 -196 -201 -434
-495 l-28 -35 -55 85 c-78 119 -199 331 -281 490 -71 138 -83 157 -92 149 -6
-6 -31 -141 -40 -214 -10 -81 -13 -107 -21 -160 -4 -27 -8 -59 -9 -70 -4 -48
-18 -162 -21 -179 -2 -10 -6 -49 -10 -85 -6 -64 -4 -72 49 -201 30 -74 73
-175 96 -224 23 -49 41 -93 41 -99 0 -5 -38 -76 -83 -156 -46 -80 -112 -200
-147 -266 -51 -96 -195 -349 -243 -426 -7 -11 5 -45 46 -131 51 -107 104 -239
112 -281 2 -10 6 -26 9 -35 3 -9 6 -35 7 -57 1 -22 4 -43 6 -48 2 -4 57 59
121 140 122 155 473 593 516 644 14 16 28 29 32 29 5 0 58 -48 118 -107 141
-137 196 -186 276 -248 36 -27 67 -52 70 -55 3 -3 21 -17 40 -30 19 -13 37
-27 40 -30 12 -13 284 -192 362 -238 l86 -51 11 27 c6 15 21 70 35 122 31 119
45 157 101 273 25 52 45 96 45 99 0 3 -15 11 -32 19 -83 33 -228 140 -357 264
-128 122 -371 399 -371 422 0 13 101 108 275 258 33 29 193 150 240 182 74 50
250 144 298 158 24 7 41 19 43 28 1 9 -9 47 -22 84 -32 88 -52 167 -62 240 -9
71 -8 336 1 418 7 62 16 129 22 180 2 17 7 67 11 113 5 66 4 82 -7 81 -8 0
-59 -26 -114 -58z"/>
<path d="M6297 6891 c-3 -9 -4 -290 -3 -626 l1 -610 3640 0 3640 0 0 622 c1
554 -1 623 -15 627 -8 3 -1645 4 -3637 4 -3337 0 -3623 -2 -3626 -17z"/>
</g>
</svg>
