<?xml version="1.0" encoding="UTF-8" standalone="no"?><svg xmlns="http://www.w3.org/2000/svg" xmlns:xlink="http://www.w3.org/1999/xlink" contentScriptType="application/ecmascript" contentStyleType="text/css" height="1160px" preserveAspectRatio="none" style="width:1400px;height:1160px;" version="1.1" viewBox="0 0 1400 1160" width="1400px" zoomAndPan="magnify"><defs><filter height="300%" id="f1qsfawcp30u6e" width="300%" x="-1" y="-1"><feGaussianBlur result="blurOut" stdDeviation="2.0"/><feColorMatrix in="blurOut" result="blurOut2" type="matrix" values="0 0 0 0 0 0 0 0 0 0 0 0 0 0 0 0 0 0 .4 0"/><feOffset dx="4.0" dy="4.0" in="blurOut2" result="blurOut3"/><feBlend in="SourceGraphic" in2="blurOut3" mode="normal"/></filter></defs><g><!--MD5=[2b7409a316d9d2e410653e6983353aed]
class Module--><rect fill="#FEFECE" filter="url(#f1qsfawcp30u6e)" height="99.2188" id="Module" style="stroke: #A80036; stroke-width: 1.5;" width="357" x="464.5" y="40"/><ellipse cx="616.25" cy="56" fill="#B4A7E5" rx="11" ry="11" style="stroke: #A80036; stroke-width: 1.0;"/><path d="M612.1719,51.7656 L612.1719,49.6094 L619.5625,49.6094 L619.5625,51.7656 L617.0938,51.7656 L617.0938,59.8438 L619.5625,59.8438 L619.5625,62 L612.1719,62 L612.1719,59.8438 L614.6406,59.8438 L614.6406,51.7656 L612.1719,51.7656 Z "/><text fill="#000000" font-family="sans-serif" font-size="12" font-style="italic" lengthAdjust="spacingAndGlyphs" textLength="45" x="636.75" y="60.1543">Module</text><line style="stroke: #A80036; stroke-width: 1.5;" x1="465.5" x2="820.5" y1="72" y2="72"/><ellipse cx="475.5" cy="83" fill="none" rx="3" ry="3" style="stroke: #038048; stroke-width: 1.0;"/><text fill="#000000" font-family="sans-serif" font-size="11" lengthAdjust="spacingAndGlyphs" textLength="73" x="484.5" y="86.2104">name: string</text><line style="stroke: #A80036; stroke-width: 1.5;" x1="465.5" x2="820.5" y1="92.8047" y2="92.8047"/><ellipse cx="475.5" cy="103.8047" fill="#84BE84" rx="3" ry="3" style="stroke: #038048; stroke-width: 1.0;"/><text fill="#000000" font-family="sans-serif" font-size="11" lengthAdjust="spacingAndGlyphs" textLength="66" x="484.5" y="107.0151">start(): void</text><ellipse cx="475.5" cy="116.6094" fill="#84BE84" rx="3" ry="3" style="stroke: #038048; stroke-width: 1.0;"/><text fill="#000000" font-family="sans-serif" font-size="11" lengthAdjust="spacingAndGlyphs" textLength="64" x="484.5" y="119.8198">stop(): void</text><ellipse cx="475.5" cy="129.4141" fill="#84BE84" rx="3" ry="3" style="stroke: #038048; stroke-width: 1.0;"/><text fill="#000000" font-family="sans-serif" font-size="11" lengthAdjust="spacingAndGlyphs" textLength="331" x="484.5" y="132.6245">getCollectedData(): Record&lt;string, any&gt; | string | number</text><!--MD5=[3cdb21628fb05eb274521658b476c2b5]
class MouseKey--><rect fill="#FEFECE" filter="url(#f1qsfawcp30u6e)" height="86.4141" id="MouseKey" style="stroke: #A80036; stroke-width: 1.5;" width="94" x="431" y="1063"/><ellipse cx="446" cy="1079" fill="#EB937F" rx="11" ry="11" style="stroke: #A80036; stroke-width: 1.0;"/><path d="M450.1094,1085 L442.3906,1085 L442.3906,1072.6094 L450.1094,1072.6094 L450.1094,1074.7656 L444.8438,1074.7656 L444.8438,1077.4375 L449.6094,1077.4375 L449.6094,1079.5938 L444.8438,1079.5938 L444.8438,1082.8438 L450.1094,1082.8438 L450.1094,1085 Z "/><text fill="#000000" font-family="sans-serif" font-size="12" lengthAdjust="spacingAndGlyphs" textLength="62" x="460" y="1083.1543">MouseKey</text><line style="stroke: #A80036; stroke-width: 1.5;" x1="432" x2="524" y1="1095" y2="1095"/><text fill="#000000" font-family="sans-serif" font-size="11" lengthAdjust="spacingAndGlyphs" textLength="26" x="437" y="1109.2104">LEFT</text><text fill="#000000" font-family="sans-serif" font-size="11" lengthAdjust="spacingAndGlyphs" textLength="34" x="437" y="1122.0151">RIGHT</text><text fill="#000000" font-family="sans-serif" font-size="11" lengthAdjust="spacingAndGlyphs" textLength="41" x="437" y="1134.8198">MIDDLE</text><line style="stroke: #A80036; stroke-width: 1.5;" x1="432" x2="524" y1="1141.4141" y2="1141.4141"/><!--MD5=[62e0f79a528483bd7088e6034908be81]
class ClickData--><rect fill="#FEFECE" filter="url(#f1qsfawcp30u6e)" height="60.8047" id="ClickData" style="stroke: #A80036; stroke-width: 1.5;" width="122" x="417" y="906"/><ellipse cx="446.4" cy="922" fill="#B4A7E5" rx="11" ry="11" style="stroke: #A80036; stroke-width: 1.0;"/><path d="M442.3219,917.7656 L442.3219,915.6094 L449.7125,915.6094 L449.7125,917.7656 L447.2438,917.7656 L447.2438,925.8438 L449.7125,925.8438 L449.7125,928 L442.3219,928 L442.3219,925.8438 L444.7906,925.8438 L444.7906,917.7656 L442.3219,917.7656 Z "/><text fill="#000000" font-family="sans-serif" font-size="12" font-style="italic" lengthAdjust="spacingAndGlyphs" textLength="58" x="463.6" y="926.1543">ClickData</text><line style="stroke: #A80036; stroke-width: 1.5;" x1="418" x2="538" y1="938" y2="938"/><ellipse cx="428" cy="949" fill="none" rx="3" ry="3" style="stroke: #038048; stroke-width: 1.0;"/><text fill="#000000" font-family="sans-serif" font-size="11" lengthAdjust="spacingAndGlyphs" textLength="96" x="437" y="952.2104">release: boolean</text><line style="stroke: #A80036; stroke-width: 1.5;" x1="418" x2="538" y1="958.8047" y2="958.8047"/><!--MD5=[3ca83b5a8aa0d994a2b466e97fddb3bb]
class MouseData--><rect fill="#FEFECE" filter="url(#f1qsfawcp30u6e)" height="86.4141" id="MouseData" style="stroke: #A80036; stroke-width: 1.5;" width="103" x="776.5" y="733.5"/><ellipse cx="791.95" cy="749.5" fill="#B4A7E5" rx="11" ry="11" style="stroke: #A80036; stroke-width: 1.0;"/><path d="M787.8719,745.2656 L787.8719,743.1094 L795.2625,743.1094 L795.2625,745.2656 L792.7938,745.2656 L792.7938,753.3438 L795.2625,753.3438 L795.2625,755.5 L787.8719,755.5 L787.8719,753.3438 L790.3406,753.3438 L790.3406,745.2656 L787.8719,745.2656 Z "/><text fill="#000000" font-family="sans-serif" font-size="12" font-style="italic" lengthAdjust="spacingAndGlyphs" textLength="70" x="806.05" y="753.6543">MouseData</text><line style="stroke: #A80036; stroke-width: 1.5;" x1="777.5" x2="878.5" y1="765.5" y2="765.5"/><ellipse cx="787.5" cy="776.5" fill="none" rx="3" ry="3" style="stroke: #038048; stroke-width: 1.0;"/><text fill="#000000" font-family="sans-serif" font-size="11" lengthAdjust="spacingAndGlyphs" textLength="58" x="796.5" y="779.7104">x: number</text><ellipse cx="787.5" cy="789.3047" fill="none" rx="3" ry="3" style="stroke: #038048; stroke-width: 1.0;"/><text fill="#000000" font-family="sans-serif" font-size="11" lengthAdjust="spacingAndGlyphs" textLength="58" x="796.5" y="792.5151">y: number</text><ellipse cx="787.5" cy="802.1094" fill="none" rx="3" ry="3" style="stroke: #038048; stroke-width: 1.0;"/><text fill="#000000" font-family="sans-serif" font-size="11" lengthAdjust="spacingAndGlyphs" textLength="77" x="796.5" y="805.3198">time: number</text><line style="stroke: #A80036; stroke-width: 1.5;" x1="777.5" x2="878.5" y1="811.9141" y2="811.9141"/><!--MD5=[bfd984ec87e35a5355b02bc5961dd87c]
class ScrollData--><rect fill="#FEFECE" filter="url(#f1qsfawcp30u6e)" height="99.2188" id="ScrollData" style="stroke: #A80036; stroke-width: 1.5;" width="136" x="841" y="887"/><ellipse cx="874" cy="903" fill="#B4A7E5" rx="11" ry="11" style="stroke: #A80036; stroke-width: 1.0;"/><path d="M869.9219,898.7656 L869.9219,896.6094 L877.3125,896.6094 L877.3125,898.7656 L874.8438,898.7656 L874.8438,906.8438 L877.3125,906.8438 L877.3125,909 L869.9219,909 L869.9219,906.8438 L872.3906,906.8438 L872.3906,898.7656 L869.9219,898.7656 Z "/><text fill="#000000" font-family="sans-serif" font-size="12" font-style="italic" lengthAdjust="spacingAndGlyphs" textLength="64" x="892" y="907.1543">ScrollData</text><line style="stroke: #A80036; stroke-width: 1.5;" x1="842" x2="976" y1="919" y2="919"/><ellipse cx="852" cy="930" fill="none" rx="3" ry="3" style="stroke: #038048; stroke-width: 1.0;"/><text fill="#000000" font-family="sans-serif" font-size="11" lengthAdjust="spacingAndGlyphs" textLength="87" x="861" y="933.2104">deltaX: number</text><ellipse cx="852" cy="942.8047" fill="none" rx="3" ry="3" style="stroke: #038048; stroke-width: 1.0;"/><text fill="#000000" font-family="sans-serif" font-size="11" lengthAdjust="spacingAndGlyphs" textLength="87" x="861" y="946.0151">deltaY: number</text><ellipse cx="852" cy="955.6094" fill="none" rx="3" ry="3" style="stroke: #038048; stroke-width: 1.0;"/><text fill="#000000" font-family="sans-serif" font-size="11" lengthAdjust="spacingAndGlyphs" textLength="89" x="861" y="958.8198">deltaZ: number</text><ellipse cx="852" cy="968.4141" fill="none" rx="3" ry="3" style="stroke: #038048; stroke-width: 1.0;"/><text fill="#000000" font-family="sans-serif" font-size="11" lengthAdjust="spacingAndGlyphs" textLength="110" x="861" y="971.6245">deltaMode: number</text><line style="stroke: #A80036; stroke-width: 1.5;" x1="842" x2="976" y1="978.2188" y2="978.2188"/><!--MD5=[737880177de1ac01acd3fce58d07e50e]
class MouseListener--><rect fill="#FEFECE" filter="url(#f1qsfawcp30u6e)" height="124.8281" id="MouseListener" style="stroke: #A80036; stroke-width: 1.5;" width="226" x="530" y="232"/><ellipse cx="593.75" cy="248" fill="#A9DCDF" rx="11" ry="11" style="stroke: #A80036; stroke-width: 1.0;"/><path d="M593.8594,243.3438 L592.7031,248.4219 L595.0313,248.4219 L593.8594,243.3438 Z M592.375,241.1094 L595.3594,241.1094 L598.7188,253.5 L596.2656,253.5 L595.5,250.4375 L592.2188,250.4375 L591.4688,253.5 L589.0313,253.5 L592.375,241.1094 Z "/><text fill="#000000" font-family="sans-serif" font-size="12" font-style="italic" lengthAdjust="spacingAndGlyphs" textLength="90" x="614.25" y="252.1543">MouseListener</text><line style="stroke: #A80036; stroke-width: 1.5;" x1="531" x2="755" y1="264" y2="264"/><ellipse cx="541" cy="275" fill="none" rx="3" ry="3" style="stroke: #038048; stroke-width: 1.0;"/><text fill="#000000" font-family="sans-serif" font-size="11" lengthAdjust="spacingAndGlyphs" textLength="73" x="550" y="278.2104">name: string</text><polygon fill="none" points="541,282.8047,545,286.8047,541,290.8047,537,286.8047" style="stroke: #B38D22; stroke-width: 1.0;"/><text fill="#000000" font-family="sans-serif" font-size="11" lengthAdjust="spacingAndGlyphs" textLength="200" x="550" y="291.0151">removeHandler: Array&lt;() =&gt; void&gt;</text><line style="stroke: #A80036; stroke-width: 1.5;" x1="531" x2="755" y1="297.6094" y2="297.6094"/><ellipse cx="541" cy="308.6094" fill="#84BE84" rx="3" ry="3" style="stroke: #038048; stroke-width: 1.0;"/><text fill="#000000" font-family="sans-serif" font-size="11" lengthAdjust="spacingAndGlyphs" textLength="66" x="550" y="311.8198">start(): void</text><ellipse cx="541" cy="321.4141" fill="#84BE84" rx="3" ry="3" style="stroke: #038048; stroke-width: 1.0;"/><text fill="#000000" font-family="sans-serif" font-size="11" lengthAdjust="spacingAndGlyphs" textLength="64" x="550" y="324.6245">stop(): void</text><ellipse cx="541" cy="334.2188" fill="#84BE84" rx="3" ry="3" style="stroke: #038048; stroke-width: 1.0;"/><text fill="#000000" font-family="sans-serif" font-size="11" font-style="italic" lengthAdjust="spacingAndGlyphs" textLength="183" x="550" y="337.4292">getCollectedData(): Array&lt;any&gt;</text><polygon fill="#FFFF44" points="541,342.0234,545,346.0234,541,350.0234,537,346.0234" style="stroke: #B38D22; stroke-width: 1.0;"/><text fill="#000000" font-family="sans-serif" font-size="11" lengthAdjust="spacingAndGlyphs" textLength="112" x="550" y="350.2339">stopTracking(): void</text><!--MD5=[45f3ac44feeaa4c19f1a210f1a73c9a2]
class MouseMovement--><rect fill="#FEFECE" filter="url(#f1qsfawcp30u6e)" height="99.2188" id="MouseMovement" style="stroke: #A80036; stroke-width: 1.5;" width="304" x="491" y="418"/><ellipse cx="586.75" cy="434" fill="#A9DCDF" rx="11" ry="11" style="stroke: #A80036; stroke-width: 1.0;"/><path d="M586.8594,429.3438 L585.7031,434.4219 L588.0313,434.4219 L586.8594,429.3438 Z M585.375,427.1094 L588.3594,427.1094 L591.7188,439.5 L589.2656,439.5 L588.5,436.4375 L585.2188,436.4375 L584.4688,439.5 L582.0313,439.5 L585.375,427.1094 Z "/><text fill="#000000" font-family="sans-serif" font-size="12" font-style="italic" lengthAdjust="spacingAndGlyphs" textLength="104" x="607.25" y="438.1543">MouseMovement</text><line style="stroke: #A80036; stroke-width: 1.5;" x1="492" x2="794" y1="450" y2="450"/><polygon fill="none" points="502,456,506,460,502,464,498,460" style="stroke: #B38D22; stroke-width: 1.0;"/><text fill="#000000" font-family="sans-serif" font-size="11" lengthAdjust="spacingAndGlyphs" textLength="96" x="511" y="464.2104">running: boolean</text><line style="stroke: #A80036; stroke-width: 1.5;" x1="492" x2="794" y1="470.8047" y2="470.8047"/><ellipse cx="502" cy="481.8047" fill="#84BE84" rx="3" ry="3" style="stroke: #038048; stroke-width: 1.0;"/><text fill="#000000" font-family="sans-serif" font-size="11" lengthAdjust="spacingAndGlyphs" textLength="223" x="511" y="485.0151">getCollectedData(): Array&lt;MouseData&gt;</text><polygon fill="#FFFF44" points="502,489.6094,506,493.6094,502,497.6094,498,493.6094" style="stroke: #B38D22; stroke-width: 1.0;"/><text fill="#000000" font-family="sans-serif" font-size="11" lengthAdjust="spacingAndGlyphs" textLength="278" x="511" y="497.8198">registerMouseListener(Event =&gt; any): () =&gt; void</text><polygon fill="#FFFF44" points="502,502.4141,506,506.4141,502,510.4141,498,506.4141" style="stroke: #B38D22; stroke-width: 1.0;"/><text fill="#000000" font-family="sans-serif" font-size="11" lengthAdjust="spacingAndGlyphs" textLength="150" x="511" y="510.6245">onMouseMove(Event): void</text><!--MD5=[07d699e4ce67d37ff2989418b96a4ca4]
class MouseClickListener--><rect fill="#FEFECE" filter="url(#f1qsfawcp30u6e)" height="150.4375" id="MouseClickListener" style="stroke: #A80036; stroke-width: 1.5;" width="492" x="6" y="547"/><ellipse cx="188.25" cy="563" fill="#ADD1B2" rx="11" ry="11" style="stroke: #A80036; stroke-width: 1.0;"/><path d="M191.2188,568.6406 Q190.6406,568.9375 190,569.0781 Q189.3594,569.2344 188.6563,569.2344 Q186.1563,569.2344 184.8281,567.5938 Q183.5156,565.9375 183.5156,562.8125 Q183.5156,559.6875 184.8281,558.0313 Q186.1563,556.375 188.6563,556.375 Q189.3594,556.375 190,556.5313 Q190.6563,556.6875 191.2188,556.9844 L191.2188,559.7031 Q190.5938,559.125 190,558.8594 Q189.4063,558.5781 188.7813,558.5781 Q187.4375,558.5781 186.75,559.6563 Q186.0625,560.7188 186.0625,562.8125 Q186.0625,564.9063 186.75,565.9844 Q187.4375,567.0469 188.7813,567.0469 Q189.4063,567.0469 190,566.7813 Q190.5938,566.5 191.2188,565.9219 L191.2188,568.6406 Z "/><text fill="#000000" font-family="sans-serif" font-size="12" lengthAdjust="spacingAndGlyphs" textLength="119" x="208.75" y="567.1543">MouseClickListener</text><line style="stroke: #A80036; stroke-width: 1.5;" x1="7" x2="497" y1="579" y2="579"/><ellipse cx="17" cy="590" fill="none" rx="3" ry="3" style="stroke: #038048; stroke-width: 1.0;"/><text fill="#000000" font-family="sans-serif" font-size="11" lengthAdjust="spacingAndGlyphs" textLength="73" x="26" y="593.2104">name: string</text><ellipse cx="17" cy="602.8047" fill="none" rx="3" ry="3" style="stroke: #038048; stroke-width: 1.0;"/><text fill="#000000" font-family="sans-serif" font-size="11" lengthAdjust="spacingAndGlyphs" textLength="204" x="26" y="606.0151">getCollectedData: Array&lt;ClickData&gt;</text><line style="stroke: #A80036; stroke-width: 1.5;" x1="7" x2="497" y1="612.6094" y2="612.6094"/><ellipse cx="17" cy="623.6094" fill="#84BE84" rx="3" ry="3" style="stroke: #038048; stroke-width: 1.0;"/><text fill="#000000" font-family="sans-serif" font-size="11" lengthAdjust="spacingAndGlyphs" textLength="66" x="26" y="626.8198">start(): void</text><ellipse cx="17" cy="636.4141" fill="#84BE84" rx="3" ry="3" style="stroke: #038048; stroke-width: 1.0;"/><text fill="#000000" font-family="sans-serif" font-size="11" lengthAdjust="spacingAndGlyphs" textLength="64" x="26" y="639.6245">stop(): void</text><rect fill="#F24D5C" height="6" style="stroke: #C82930; stroke-width: 1.0;" width="6" x="14" y="646.2188"/><text fill="#000000" font-family="sans-serif" font-size="11" lengthAdjust="spacingAndGlyphs" textLength="466" x="26" y="652.4292">registerClickListener("mousedown" | "mouseup", MouseEvent =&gt; any): () =&gt; void</text><rect fill="#F24D5C" height="6" style="stroke: #C82930; stroke-width: 1.0;" width="6" x="14" y="659.0234"/><text fill="#000000" font-family="sans-serif" font-size="11" lengthAdjust="spacingAndGlyphs" textLength="444" x="26" y="665.2339">registerOnFrames(MouseEvent =&gt; any, MouseEvent =&gt; any): Promise&lt;void&gt;</text><rect fill="#F24D5C" height="6" style="stroke: #C82930; stroke-width: 1.0;" width="6" x="14" y="671.8281"/><text fill="#000000" font-family="sans-serif" font-size="11" lengthAdjust="spacingAndGlyphs" textLength="266" x="26" y="678.0386">getClickHandler(boolean): MouseEvent =&gt; void</text><rect fill="#F24D5C" height="6" style="stroke: #C82930; stroke-width: 1.0;" width="6" x="14" y="684.6328"/><text fill="#000000" font-family="sans-serif" font-size="11" lengthAdjust="spacingAndGlyphs" textLength="237" x="26" y="690.8433">onMouseClick(MouseEvent, boolean): void</text><!--MD5=[b3841a2418afb9c39bd26617551ccfcf]
class ScrollListener--><rect fill="#FEFECE" filter="url(#f1qsfawcp30u6e)" height="137.6328" id="ScrollListener" style="stroke: #A80036; stroke-width: 1.5;" width="344" x="770" y="553"/><ellipse cx="895.75" cy="569" fill="#ADD1B2" rx="11" ry="11" style="stroke: #A80036; stroke-width: 1.0;"/><path d="M898.7188,574.6406 Q898.1406,574.9375 897.5,575.0781 Q896.8594,575.2344 896.1563,575.2344 Q893.6563,575.2344 892.3281,573.5938 Q891.0156,571.9375 891.0156,568.8125 Q891.0156,565.6875 892.3281,564.0313 Q893.6563,562.375 896.1563,562.375 Q896.8594,562.375 897.5,562.5313 Q898.1563,562.6875 898.7188,562.9844 L898.7188,565.7031 Q898.0938,565.125 897.5,564.8594 Q896.9063,564.5781 896.2813,564.5781 Q894.9375,564.5781 894.25,565.6563 Q893.5625,566.7188 893.5625,568.8125 Q893.5625,570.9063 894.25,571.9844 Q894.9375,573.0469 896.2813,573.0469 Q896.9063,573.0469 897.5,572.7813 Q898.0938,572.5 898.7188,571.9219 L898.7188,574.6406 Z "/><text fill="#000000" font-family="sans-serif" font-size="12" lengthAdjust="spacingAndGlyphs" textLength="84" x="916.25" y="573.1543">ScrollListener</text><line style="stroke: #A80036; stroke-width: 1.5;" x1="771" x2="1113" y1="585" y2="585"/><ellipse cx="781" cy="596" fill="none" rx="3" ry="3" style="stroke: #038048; stroke-width: 1.0;"/><text fill="#000000" font-family="sans-serif" font-size="11" lengthAdjust="spacingAndGlyphs" textLength="73" x="790" y="599.2104">name: string</text><line style="stroke: #A80036; stroke-width: 1.5;" x1="771" x2="1113" y1="605.8047" y2="605.8047"/><ellipse cx="781" cy="616.8047" fill="#84BE84" rx="3" ry="3" style="stroke: #038048; stroke-width: 1.0;"/><text fill="#000000" font-family="sans-serif" font-size="11" lengthAdjust="spacingAndGlyphs" textLength="66" x="790" y="620.0151">start(): void</text><ellipse cx="781" cy="629.6094" fill="#84BE84" rx="3" ry="3" style="stroke: #038048; stroke-width: 1.0;"/><text fill="#000000" font-family="sans-serif" font-size="11" lengthAdjust="spacingAndGlyphs" textLength="64" x="790" y="632.8198">stop(): void</text><ellipse cx="781" cy="642.4141" fill="#84BE84" rx="3" ry="3" style="stroke: #038048; stroke-width: 1.0;"/><text fill="#000000" font-family="sans-serif" font-size="11" lengthAdjust="spacingAndGlyphs" textLength="218" x="790" y="645.6245">getCollectedData(): Array&lt;ScrollData&gt;</text><rect fill="#F24D5C" height="6" style="stroke: #C82930; stroke-width: 1.0;" width="6" x="778" y="652.2188"/><text fill="#000000" font-family="sans-serif" font-size="11" lengthAdjust="spacingAndGlyphs" textLength="318" x="790" y="658.4292">registerOnFrames(WheelEvent =&gt; any): Promise&lt;void&gt;</text><rect fill="#F24D5C" height="6" style="stroke: #C82930; stroke-width: 1.0;" width="6" x="778" y="665.0234"/><text fill="#000000" font-family="sans-serif" font-size="11" lengthAdjust="spacingAndGlyphs" textLength="310" x="790" y="671.2339">registerWheelListener(WheelEvent =&gt; void): () =&gt; void</text><rect fill="#F24D5C" height="6" style="stroke: #C82930; stroke-width: 1.0;" width="6" x="778" y="677.8281"/><text fill="#000000" font-family="sans-serif" font-size="11" lengthAdjust="spacingAndGlyphs" textLength="150" x="790" y="684.0386">onWheel(WheelEvent): void</text><!--MD5=[5cd263751be7086dc920ae2975757419]
class MouseMovementCheckbox--><rect fill="#FEFECE" filter="url(#f1qsfawcp30u6e)" height="86.4141" id="MouseMovementCheckbox" style="stroke: #A80036; stroke-width: 1.5;" width="197" x="544.5" y="733.5"/><ellipse cx="559.5" cy="749.5" fill="#ADD1B2" rx="11" ry="11" style="stroke: #A80036; stroke-width: 1.0;"/><path d="M562.4688,755.1406 Q561.8906,755.4375 561.25,755.5781 Q560.6094,755.7344 559.9063,755.7344 Q557.4063,755.7344 556.0781,754.0938 Q554.7656,752.4375 554.7656,749.3125 Q554.7656,746.1875 556.0781,744.5313 Q557.4063,742.875 559.9063,742.875 Q560.6094,742.875 561.25,743.0313 Q561.9063,743.1875 562.4688,743.4844 L562.4688,746.2031 Q561.8438,745.625 561.25,745.3594 Q560.6563,745.0781 560.0313,745.0781 Q558.6875,745.0781 558,746.1563 Q557.3125,747.2188 557.3125,749.3125 Q557.3125,751.4063 558,752.4844 Q558.6875,753.5469 560.0313,753.5469 Q560.6563,753.5469 561.25,753.2813 Q561.8438,753 562.4688,752.4219 L562.4688,755.1406 Z "/><text fill="#000000" font-family="sans-serif" font-size="12" lengthAdjust="spacingAndGlyphs" textLength="165" x="573.5" y="753.6543">MouseMovementCheckbox</text><line style="stroke: #A80036; stroke-width: 1.5;" x1="545.5" x2="740.5" y1="765.5" y2="765.5"/><ellipse cx="555.5" cy="776.5" fill="none" rx="3" ry="3" style="stroke: #038048; stroke-width: 1.0;"/><text fill="#000000" font-family="sans-serif" font-size="11" lengthAdjust="spacingAndGlyphs" textLength="73" x="564.5" y="779.7104">name: string</text><line style="stroke: #A80036; stroke-width: 1.5;" x1="545.5" x2="740.5" y1="786.3047" y2="786.3047"/><ellipse cx="555.5" cy="797.3047" fill="#84BE84" rx="3" ry="3" style="stroke: #038048; stroke-width: 1.0;"/><text fill="#000000" font-family="sans-serif" font-size="11" lengthAdjust="spacingAndGlyphs" textLength="66" x="564.5" y="800.5151">start(): void</text><ellipse cx="555.5" cy="810.1094" fill="#84BE84" rx="3" ry="3" style="stroke: #038048; stroke-width: 1.0;"/><text fill="#000000" font-family="sans-serif" font-size="11" lengthAdjust="spacingAndGlyphs" textLength="64" x="564.5" y="813.3198">stop(): void</text><!--MD5=[25d1589ad050a752196933dfe0bfd4c9]
class MouseMovementRest--><rect fill="#FEFECE" filter="url(#f1qsfawcp30u6e)" height="99.2188" id="MouseMovementRest" style="stroke: #A80036; stroke-width: 1.5;" width="165" x="344.5" y="727"/><ellipse cx="359.5" cy="743" fill="#ADD1B2" rx="11" ry="11" style="stroke: #A80036; stroke-width: 1.0;"/><path d="M362.4688,748.6406 Q361.8906,748.9375 361.25,749.0781 Q360.6094,749.2344 359.9063,749.2344 Q357.4063,749.2344 356.0781,747.5938 Q354.7656,745.9375 354.7656,742.8125 Q354.7656,739.6875 356.0781,738.0313 Q357.4063,736.375 359.9063,736.375 Q360.6094,736.375 361.25,736.5313 Q361.9063,736.6875 362.4688,736.9844 L362.4688,739.7031 Q361.8438,739.125 361.25,738.8594 Q360.6563,738.5781 360.0313,738.5781 Q358.6875,738.5781 358,739.6563 Q357.3125,740.7188 357.3125,742.8125 Q357.3125,744.9063 358,745.9844 Q358.6875,747.0469 360.0313,747.0469 Q360.6563,747.0469 361.25,746.7813 Q361.8438,746.5 362.4688,745.9219 L362.4688,748.6406 Z "/><text fill="#000000" font-family="sans-serif" font-size="12" lengthAdjust="spacingAndGlyphs" textLength="133" x="373.5" y="747.1543">MouseMovementRest</text><line style="stroke: #A80036; stroke-width: 1.5;" x1="345.5" x2="508.5" y1="759" y2="759"/><ellipse cx="355.5" cy="770" fill="none" rx="3" ry="3" style="stroke: #038048; stroke-width: 1.0;"/><text fill="#000000" font-family="sans-serif" font-size="11" lengthAdjust="spacingAndGlyphs" textLength="73" x="364.5" y="773.2104">name: string</text><line style="stroke: #A80036; stroke-width: 1.5;" x1="345.5" x2="508.5" y1="779.8047" y2="779.8047"/><ellipse cx="355.5" cy="790.8047" fill="#84BE84" rx="3" ry="3" style="stroke: #038048; stroke-width: 1.0;"/><text fill="#000000" font-family="sans-serif" font-size="11" lengthAdjust="spacingAndGlyphs" textLength="66" x="364.5" y="794.0151">start(): void</text><ellipse cx="355.5" cy="803.6094" fill="#84BE84" rx="3" ry="3" style="stroke: #038048; stroke-width: 1.0;"/><text fill="#000000" font-family="sans-serif" font-size="11" lengthAdjust="spacingAndGlyphs" textLength="64" x="364.5" y="806.8198">stop(): void</text><rect fill="#F24D5C" height="6" style="stroke: #C82930; stroke-width: 1.0;" width="6" x="352.5" y="813.4141"/><text fill="#000000" font-family="sans-serif" font-size="11" lengthAdjust="spacingAndGlyphs" textLength="114" x="364.5" y="819.6245">startTracking(): void</text><!--MD5=[b482b961175d7f6610312ff088df222f]
class FrameListener--><rect fill="#FEFECE" filter="url(#f1qsfawcp30u6e)" height="163.2422" id="FrameListener" style="stroke: #A80036; stroke-width: 1.5;" width="532" x="857" y="8"/><ellipse cx="1074.25" cy="24" fill="#ADD1B2" rx="11" ry="11" style="stroke: #A80036; stroke-width: 1.0;"/><path d="M1077.2188,29.6406 Q1076.6406,29.9375 1076,30.0781 Q1075.3594,30.2344 1074.6563,30.2344 Q1072.1563,30.2344 1070.8281,28.5938 Q1069.5156,26.9375 1069.5156,23.8125 Q1069.5156,20.6875 1070.8281,19.0313 Q1072.1563,17.375 1074.6563,17.375 Q1075.3594,17.375 1076,17.5313 Q1076.6563,17.6875 1077.2188,17.9844 L1077.2188,20.7031 Q1076.5938,20.125 1076,19.8594 Q1075.4063,19.5781 1074.7813,19.5781 Q1073.4375,19.5781 1072.75,20.6563 Q1072.0625,21.7188 1072.0625,23.8125 Q1072.0625,25.9063 1072.75,26.9844 Q1073.4375,28.0469 1074.7813,28.0469 Q1075.4063,28.0469 1076,27.7813 Q1076.5938,27.5 1077.2188,26.9219 L1077.2188,29.6406 Z "/><text fill="#000000" font-family="sans-serif" font-size="12" lengthAdjust="spacingAndGlyphs" textLength="89" x="1094.75" y="28.1543">FrameListener</text><line style="stroke: #A80036; stroke-width: 1.5;" x1="858" x2="1388" y1="40" y2="40"/><rect fill="none" height="6" style="stroke: #C82930; stroke-width: 1.0;" width="6" x="865" y="48"/><text fill="#000000" font-family="sans-serif" font-size="11" lengthAdjust="spacingAndGlyphs" textLength="235" x="877" y="54.2104">captchaFrame: HTMLIFrameElement | null</text><rect fill="none" height="6" style="stroke: #C82930; stroke-width: 1.0;" width="6" x="865" y="60.8047"/><text fill="#000000" font-family="sans-serif" font-size="11" lengthAdjust="spacingAndGlyphs" textLength="206" x="877" y="67.0151">taskFrame: HTMLIframElement | null</text><line style="stroke: #A80036; stroke-width: 1.5;" x1="858" x2="1388" y1="73.6094" y2="73.6094"/><ellipse cx="868" cy="84.6094" fill="#84BE84" rx="3" ry="3" style="stroke: #038048; stroke-width: 1.0;"/><text fill="#000000" font-family="sans-serif" font-size="11" lengthAdjust="spacingAndGlyphs" textLength="261" x="877" y="87.8198">getCaptchaFrame(): HTMLIframeElement | null</text><ellipse cx="868" cy="97.4141" fill="#84BE84" rx="3" ry="3" style="stroke: #038048; stroke-width: 1.0;"/><text fill="#000000" font-family="sans-serif" font-size="11" lengthAdjust="spacingAndGlyphs" textLength="242" x="877" y="100.6245">getTaskFrame(): HTMLIframeElement | null</text><ellipse cx="868" cy="110.2188" fill="#84BE84" rx="3" ry="3" style="stroke: #038048; stroke-width: 1.0;"/><text fill="#000000" font-family="sans-serif" font-size="11" lengthAdjust="spacingAndGlyphs" textLength="377" x="877" y="113.4292">registerCaptchaFrameClickListener(Event =&gt; any, any): () =&gt; void</text><ellipse cx="868" cy="123.0234" fill="#84BE84" rx="3" ry="3" style="stroke: #038048; stroke-width: 1.0;"/><text fill="#000000" font-family="sans-serif" font-size="11" lengthAdjust="spacingAndGlyphs" textLength="380" x="877" y="126.2339">registerCaptchaFrameMoveListener(Event =&gt; any, any): () =&gt; void</text><ellipse cx="868" cy="135.8281" fill="#84BE84" rx="3" ry="3" style="stroke: #038048; stroke-width: 1.0;"/><text fill="#000000" font-family="sans-serif" font-size="11" lengthAdjust="spacingAndGlyphs" textLength="358" x="877" y="139.0386">registerTaskFrameClickListener(Event =&gt; any, any): () =&gt; void</text><ellipse cx="868" cy="148.6328" fill="#84BE84" rx="3" ry="3" style="stroke: #038048; stroke-width: 1.0;"/><text fill="#000000" font-family="sans-serif" font-size="11" lengthAdjust="spacingAndGlyphs" textLength="361" x="877" y="151.8433">registerTaskFrameMoveListener(Event =&gt; any, any): () =&gt; void</text><rect fill="#F24D5C" height="6" style="stroke: #C82930; stroke-width: 1.0;" width="6" x="865" y="158.4375"/><text fill="#000000" font-family="sans-serif" font-size="11" lengthAdjust="spacingAndGlyphs" textLength="506" x="877" y="164.6479">registerIframeListener(() =&gt; HTMLIframeElement | null, string, Event =&gt; any): () =&gt; void</text><!--MD5=[bc8bc33d8520696db3a45ce4c5eb8028]
reverse link ClickData to MouseKey--><path d="M478,980.37 C478,1005.7 478,1037.65 478,1062.85 " fill="none" id="ClickData&lt;-MouseKey" style="stroke: #A80036; stroke-width: 1.0;"/><polygon fill="#A80036" points="478,967.06,474,973.06,478,979.06,482,973.06,478,967.06" style="stroke: #A80036; stroke-width: 1.0;"/><text fill="#000000" font-family="sans-serif" font-size="13" lengthAdjust="spacingAndGlyphs" textLength="22" x="479" y="1029.0669">key</text><text fill="#000000" font-family="sans-serif" font-size="13" lengthAdjust="spacingAndGlyphs" textLength="8" x="469.175" y="987.0106">1</text><text fill="#000000" font-family="sans-serif" font-size="13" lengthAdjust="spacingAndGlyphs" textLength="8" x="469.3625" y="1051.8221">1</text><!--MD5=[94632a8eadb6f7c9f630f0ef065a1f41]
reverse link MouseData to ClickData--><path d="M759.27,825.85 C759.18,825.9 759.09,825.95 759,826 C686.55,864.84 597.28,897.22 539.07,916.46 " fill="none" id="MouseData&lt;-ClickData" style="stroke: #A80036; stroke-width: 1.0;"/><polygon fill="none" points="755.7,819.83,776.48,815.69,762.82,831.89,755.7,819.83" style="stroke: #A80036; stroke-width: 1.0;"/><!--MD5=[c70ec373132b8cbde06820181f3c84ed]
reverse link MouseData to ScrollData--><path d="M858.94,837.85 C867.25,854.07 876.14,871.4 884.08,886.89 " fill="none" id="MouseData&lt;-ScrollData" style="stroke: #A80036; stroke-width: 1.0;"/><polygon fill="none" points="852.6,840.83,849.71,819.84,865.06,834.45,852.6,840.83" style="stroke: #A80036; stroke-width: 1.0;"/><!--MD5=[db2b76fb012054d502fae3d7887f097f]
reverse link Module to MouseListener--><path d="M643,159.36 C643,182.83 643,208.92 643,231.79 " fill="none" id="Module&lt;-MouseListener" style="stroke: #A80036; stroke-width: 1.0;"/><polygon fill="none" points="636,159.12,643,139.12,650,159.12,636,159.12" style="stroke: #A80036; stroke-width: 1.0;"/><!--MD5=[8ad4f8c7a5db9f28b8541324bafa2ada]
reverse link MouseListener to MouseMovement--><path d="M643,377.35 C643,391.26 643,405.31 643,418 " fill="none" id="MouseListener&lt;-MouseMovement" style="stroke: #A80036; stroke-width: 1.0;"/><polygon fill="none" points="636,377.23,643,357.23,650,377.23,636,377.23" style="stroke: #A80036; stroke-width: 1.0;"/><!--MD5=[0b0efe77a2e85111b56802e203e42112]
reverse link MouseMovement to MouseData--><path d="M663.68,529.91 C665.52,535.67 667.32,541.44 669,547 C688.98,613.16 668.5,641.74 710,697 C725.33,717.42 737.66,712.98 759,727 C764.63,730.7 770.46,734.63 776.25,738.6 " fill="none" id="MouseMovement&lt;-MouseData" style="stroke: #A80036; stroke-width: 1.0;"/><polygon fill="#A80036" points="659.63,517.37,657.6699,524.3096,663.3217,528.788,665.2819,521.8484,659.63,517.37" style="stroke: #A80036; stroke-width: 1.0;"/><polygon fill="none" points="716,617.5664,720,621.5664,716,625.5664,712,621.5664" style="stroke: #B38D22; stroke-width: 1.0;"/><text fill="#000000" font-family="sans-serif" font-size="13" lengthAdjust="spacingAndGlyphs" textLength="29" x="723" y="626.5669">path</text><text fill="#000000" font-family="sans-serif" font-size="13" lengthAdjust="spacingAndGlyphs" textLength="8" x="653.3272" y="537.1402">1</text><text fill="#000000" font-family="sans-serif" font-size="13" lengthAdjust="spacingAndGlyphs" textLength="23" x="749.6398" y="728.2806">0..*</text><!--MD5=[408a1ebab82bbcbf1e238cd8ee7e6e02]
reverse link MouseListener to MouseClickListener--><path d="M536.99,368.92 C515.46,384.66 493.23,401.52 473,418 C423.12,458.64 369.93,507.31 328.24,546.81 " fill="none" id="MouseListener&lt;-MouseClickListener" style="stroke: #A80036; stroke-width: 1.0;"/><polygon fill="none" points="532.97,363.19,553.28,357.14,541.18,374.54,532.97,363.19" style="stroke: #A80036; stroke-width: 1.0;"/><!--MD5=[c15aad4aee65fcc4b87cdafd97c93b03]
reverse link MouseClickListener to ClickData--><path d="M241.84,710.24 C241.65,748.61 247.68,792.47 270,826 C303.58,876.45 368.19,905.21 416.54,920.48 " fill="none" id="MouseClickListener&lt;-ClickData" style="stroke: #A80036; stroke-width: 1.0;"/><polygon fill="#A80036" points="242.14,697.2,238.0026,703.1061,241.8632,709.1968,246.0005,703.2907,242.14,697.2" style="stroke: #A80036; stroke-width: 1.0;"/><rect fill="none" height="6" style="stroke: #C82930; stroke-width: 1.0;" width="6" x="273" y="774.0664"/><text fill="#000000" font-family="sans-serif" font-size="13" lengthAdjust="spacingAndGlyphs" textLength="43" x="283" y="781.0669">events</text><text fill="#000000" font-family="sans-serif" font-size="13" lengthAdjust="spacingAndGlyphs" textLength="8" x="232.7757" y="717.3927">1</text><text fill="#000000" font-family="sans-serif" font-size="13" lengthAdjust="spacingAndGlyphs" textLength="23" x="386.016" y="915.1383">0..*</text><!--MD5=[dae6ffcab4fa1e440550f15cba494337]
reverse link MouseListener to ScrollListener--><path d="M758.38,369.43 C777.69,384.32 796.72,400.74 813,418 C850.97,458.25 884.19,511.21 907.41,552.95 " fill="none" id="MouseListener&lt;-ScrollListener" style="stroke: #A80036; stroke-width: 1.0;"/><polygon fill="none" points="753.98,374.88,742.15,357.31,762.36,363.67,753.98,374.88" style="stroke: #A80036; stroke-width: 1.0;"/><!--MD5=[9f713d0c8364ee95e8202ea60f9f6c30]
reverse link ScrollListener to ScrollData--><path d="M933.41,704.37 C927.29,762.26 919.29,838.1 914.14,886.82 " fill="none" id="ScrollListener&lt;-ScrollData" style="stroke: #A80036; stroke-width: 1.0;"/><polygon fill="#A80036" points="934.8,691.19,930.1894,696.7346,933.5342,703.1231,938.1448,697.5785,934.8,691.19" style="stroke: #A80036; stroke-width: 1.0;"/><rect fill="none" height="6" style="stroke: #C82930; stroke-width: 1.0;" width="6" x="933" y="774.0664"/><text fill="#000000" font-family="sans-serif" font-size="13" lengthAdjust="spacingAndGlyphs" textLength="43" x="943" y="781.0669">events</text><text fill="#000000" font-family="sans-serif" font-size="13" lengthAdjust="spacingAndGlyphs" textLength="8" x="925.7325" y="710.5902">1</text><text fill="#000000" font-family="sans-serif" font-size="13" lengthAdjust="spacingAndGlyphs" textLength="23" x="890.2456" y="875.8399">0..*</text><!--MD5=[1f6a9dca458bec038e078ca051bc3c54]
reverse link MouseMovement to MouseMovementCheckbox--><path d="M643,537.28 C643,597.48 643,682.98 643,733.5 " fill="none" id="MouseMovement&lt;-MouseMovementCheckbox" style="stroke: #A80036; stroke-width: 1.0;"/><polygon fill="none" points="636,537.15,643,517.15,650,537.15,636,537.15" style="stroke: #A80036; stroke-width: 1.0;"/><!--MD5=[5ca5f268d635f5df0f349ecd6f9ea59d]
reverse link MouseMovement to MouseMovementRest--><path d="M605.52,534.8 C578.06,581.57 538.79,644.91 499,697 C491.37,706.99 482.71,717.22 474.11,726.84 " fill="none" id="MouseMovement&lt;-MouseMovementRest" style="stroke: #A80036; stroke-width: 1.0;"/><polygon fill="none" points="599.51,531.2,615.62,517.43,611.62,538.24,599.51,531.2" style="stroke: #A80036; stroke-width: 1.0;"/><!--MD5=[87a846038c6d62e67275507f27fe3b94]
@startuml
interface Module {
 + name: string
 + start(): void
 + stop(): void
 + getCollectedData(): Record<string, any> | string | number
}

enum MouseKey {
 LEFT
 RIGHT
 MIDDLE
}

interface ClickData {
 + release: boolean
}

ClickData "1" *- - "1" MouseKey : key

interface MouseData {
 + x: number
 + y: number
 + time: number
}

interface ScrollData {
 + deltaX: number
 + deltaY: number
 + deltaZ: number
 + deltaMode: number
}

MouseData <|- - ClickData
MouseData <|- - ScrollData

abstract class MouseListener {
 + name: string
 # {field} removeHandler: Array<() => void> 
 + start(): void
 + stop(): void
 + {abstract} getCollectedData(): Array<any>
 # stopTracking(): void
}

Module <|- - MouseListener
MouseListener <|- - MouseMovement
MouseMovement "1" *- - "0..*" MouseData: # path


abstract class MouseMovement {
 # running: boolean
 + getCollectedData(): Array<MouseData>
 # registerMouseListener(Event => any): () => void
 # onMouseMove(Event): void
}

class MouseClickListener {
 + name: string
 + start(): void
 + stop(): void
 + getCollectedData: Array<ClickData>
 - registerClickListener("mousedown" | "mouseup", MouseEvent => any): () => void
 - registerOnFrames(MouseEvent => any, MouseEvent => any): Promise<void>
 - getClickHandler(boolean): MouseEvent => void
 - onMouseClick(MouseEvent, boolean): void
}

MouseListener <|- - MouseClickListener
MouseClickListener "1" *- - "0..*" ClickData: - events

class ScrollListener {
 + name: string
 + start(): void
 + stop(): void
 + getCollectedData(): Array<ScrollData>
 - registerOnFrames(WheelEvent => any): Promise<void>
 - registerWheelListener(WheelEvent => void): () => void
 - onWheel(WheelEvent): void
}

MouseListener <|- - ScrollListener
ScrollListener "1" *- - "0..*" ScrollData: - events

class MouseMovementCheckbox {
 + name: string
 + start(): void
 + stop(): void
}
MouseMovement <|- - MouseMovementCheckbox

class MouseMovementRest {
 + name: string
 + start(): void
 + stop(): void
 - startTracking(): void
}
MouseMovement <|- - MouseMovementRest


class FrameListener {
 - captchaFrame: HTMLIFrameElement | null
 - taskFrame: HTMLIframElement | null
 + getCaptchaFrame(): HTMLIframeElement | null
 + getTaskFrame(): HTMLIframeElement | null
 + registerCaptchaFrameClickListener(Event => any, any): () => void
 + registerCaptchaFrameMoveListener(Event => any, any): () => void
 + registerTaskFrameClickListener(Event => any, any): () => void
 + registerTaskFrameMoveListener(Event => any, any): () => void
 - registerIframeListener(() => HTMLIframeElement | null, string, Event => any): () => void
}
@enduml

PlantUML version 1.2020.05(Thu Mar 19 22:17:32 CET 2020)
(GPL source distribution)
Java Runtime: OpenJDK Runtime Environment
JVM: OpenJDK 64-Bit Server VM
Java Version: 11.0.6+10
Operating System: Linux
Default Encoding: UTF-8
Language: de
Country: DE
--></g></svg>